<svg width="160" height="65" viewBox="0 0 160 65" fill="none" xmlns="http://www.w3.org/2000/svg">
<mask id="path-1-inside-1" fill="white">
<path fill-rule="evenodd" clip-rule="evenodd" d="M0 23C0 10.2975 22.3858 0 50 0C74.6483 0 95.1309 8.20421 99.2465 19H156C158.209 19 160 20.7909 160 23V55C160 57.2091 158.209 59 156 59H39L35 65H19L15 59H4C1.79086 59 0 57.2091 0 55V23Z"/>
</mask>
<path fill-rule="evenodd" clip-rule="evenodd" d="M0 23C0 10.2975 22.3858 0 50 0C74.6483 0 95.1309 8.20421 99.2465 19H156C158.209 19 160 20.7909 160 23V55C160 57.2091 158.209 59 156 59H39L35 65H19L15 59H4C1.79086 59 0 57.2091 0 55V23Z" fill="#F6C52E"/>
<path d="M99.2465 19L98.3121 19.3562L98.5575 20H99.2465V19ZM39 59V58H38.4648L38.1679 58.4453L39 59ZM35 65V66H35.5352L35.8321 65.5547L35 65ZM19 65L18.1679 65.5547L18.4648 66H19V65ZM15 59L15.8321 58.4453L15.5352 58H15V59ZM1 23C1 17.2757 6.08679 11.7739 15.0626 7.64503C23.9522 3.55578 36.3035 1 50 1V-1C36.0823 -1 23.4335 1.59294 14.2268 5.82805C5.10609 10.0236 -1 16.0218 -1 23H1ZM50 1C62.2218 1 73.3782 3.03523 81.9596 6.38319C90.5953 9.75235 96.4082 14.362 98.3121 19.3562L100.181 18.6438C97.9693 12.8423 91.483 7.95186 82.6865 4.51997C73.8356 1.06687 62.4264 -1 50 -1V1ZM156 18H99.2465V20H156V18ZM161 23C161 20.2386 158.761 18 156 18V20C157.657 20 159 21.3431 159 23H161ZM161 55V23H159V55H161ZM156 60C158.761 60 161 57.7614 161 55H159C159 56.6569 157.657 58 156 58V60ZM39 60H156V58H39V60ZM35.8321 65.5547L39.8321 59.5547L38.1679 58.4453L34.1679 64.4453L35.8321 65.5547ZM19 66H35V64H19V66ZM14.1679 59.5547L18.1679 65.5547L19.8321 64.4453L15.8321 58.4453L14.1679 59.5547ZM4 60H15V58H4V60ZM-1 55C-1 57.7614 1.23857 60 4 60V58C2.34314 58 1 56.6569 1 55H-1ZM-1 23V55H1V23H-1Z" fill="#FFC000" mask="url(#path-1-inside-1)"/>
<path d="M13.11 35.82C12.85 35.91 12.64 35.93 12.23 35.94C9.79 35.96 9.79 35.96 9.63 35.98C9.68 35.89 9.75 35.77 9.87 35.5C10.06 35.12 10.06 35.12 10.17 34.94L8.87 34.65C8.78 35.02 8.58 35.51 8.29 36.04C7.68 37.16 6.88 38.07 5.78 38.89C6.3 39.19 6.45 39.32 6.78 39.69C7.79 38.84 8.5 38.03 9.12 37L12.23 36.97C11.92 37.91 11.58 38.61 11.11 39.33C10.36 38.74 9.94 38.46 9.1 37.99L8.34 38.88C9.09 39.29 9.69 39.71 10.39 40.31C9.88 40.88 9.46 41.24 8.75 41.7C8.15 42.1 7.65 42.35 6.8 42.7C7.18 43.02 7.31 43.19 7.63 43.73C9.76 42.75 11.17 41.57 12.19 39.91C12.6 39.24 13.15 38.07 13.47 37.16C13.63 36.7 13.65 36.66 13.78 36.49L13.11 35.82ZM16.6 37.56C17.05 38.44 17.25 38.97 17.51 39.98L18.64 39.62C18.28 38.5 18.08 38.02 17.66 37.25L16.6 37.56ZM18.74 37.14C19.16 37.96 19.46 38.73 19.65 39.49L20.76 39.14C20.51 38.27 20.32 37.83 19.79 36.84L18.74 37.14ZM22.18 37.04C22.18 37.35 22.13 37.7 22 38.19C21.57 39.79 20.9 40.81 19.73 41.66C19.14 42.09 18.73 42.31 18.03 42.58C18.45 42.98 18.57 43.13 18.83 43.57C20.31 42.82 21.14 42.17 21.88 41.16C22.52 40.29 22.97 39.19 23.26 37.83C23.32 37.52 23.34 37.47 23.4 37.32L22.18 37.04ZM27.37 35.73C26.69 35.73 26.45 35.72 26.09 35.66V36.96C26.42 36.91 26.61 36.9 27.35 36.9H32.11C31.47 39.56 29.66 41.42 26.89 42.28C27.34 42.72 27.51 42.95 27.77 43.47C30.93 42.15 32.7 40.11 33.51 36.84C33.58 36.85 33.64 36.86 33.7 36.86C34.34 36.86 34.86 36.34 34.86 35.7C34.86 35.07 34.34 34.55 33.7 34.55C33.06 34.55 32.56 35.06 32.55 35.71C32.38 35.72 32.26 35.73 31.96 35.73H27.37ZM33.7 35.05C34.07 35.05 34.36 35.34 34.36 35.7C34.36 36.06 34.07 36.36 33.7 36.36C33.34 36.36 33.05 36.06 33.05 35.7C33.05 35.34 33.34 35.05 33.7 35.05ZM36.32 37.86C36.47 37.84 36.51 37.84 36.76 37.83C37.95 37.81 39.43 37.71 40.31 37.59C40.97 38.82 40.98 38.85 41.39 39.41C40.89 39.21 40.31 39.11 39.66 39.11C38.52 39.11 37.69 39.34 37.11 39.83C36.65 40.22 36.39 40.75 36.39 41.32C36.39 41.82 36.6 42.31 36.98 42.67C37.49 43.16 38.48 43.43 39.76 43.43C40.76 43.43 41.69 43.27 42.93 42.89L42.77 41.61C41.99 42.02 40.82 42.28 39.76 42.28C38.4 42.28 37.66 41.92 37.66 41.27C37.66 40.56 38.46 40.15 39.82 40.15C40.42 40.15 40.95 40.23 41.4 40.38C41.68 40.48 41.84 40.58 42.09 40.81L43.25 40.28C42.9 39.81 42.46 39.16 42.19 38.7C42.09 38.52 41.86 38.1 41.5 37.43C42.33 37.27 42.82 37.17 42.97 37.13C43.31 37.06 43.42 37.03 43.68 36.99L43.54 35.8C43.01 36 42.12 36.21 41.09 36.39C40.78 35.66 40.6 35.13 40.54 34.79L39.25 34.96C39.3 35.04 39.73 36.1 39.9 36.54C39.28 36.62 37.95 36.71 37.2 36.71C36.79 36.71 36.53 36.7 36.23 36.66L36.32 37.86ZM48.31 38.29C48.32 38.17 48.33 38.11 48.33 38.11L48.35 37.52C48.41 37.44 48.43 37.42 48.47 37.36C48.56 37.23 48.56 37.23 48.61 37.18C48.76 37 48.8 36.96 48.9 36.88L48.53 36.46C48.46 36.48 48.42 36.5 48.41 36.5C48.43 35.89 48.44 35.81 48.45 35.61C48.47 35.41 48.48 35.28 48.48 35.23C48.49 35 48.49 34.98 48.52 34.86L47.25 34.84C47.28 35.07 47.28 35.14 47.28 35.4C47.28 35.63 47.27 35.94 47.27 36.22C47.26 36.45 47.26 36.45 47.25 36.6C46.78 36.63 46.23 36.66 46.04 36.66C45.9 36.66 45.81 36.66 45.63 36.64L45.69 37.77C45.96 37.72 46.16 37.7 47.22 37.63C47.22 37.9 47.21 37.92 47.21 38.15C47.19 38.54 47.19 38.65 47.18 39.13C46.99 39.34 46.99 39.34 46.05 40.27C45.79 40.53 45.63 40.68 45.4 40.84L45.98 42.03C46.08 41.88 46.22 41.71 46.44 41.46C46.95 40.89 47.06 40.76 47.15 40.62L47.17 40.61C47.15 40.88 47.15 40.88 47.15 41.95C47.14 43.13 47.14 43.13 47.08 43.54H48.37C48.33 43.17 48.33 43.14 48.32 41.89C48.31 40.78 48.31 40.78 48.31 40.7C48.31 40.42 48.31 40.14 48.33 39.69C48.71 39.23 49.42 38.6 50.15 38.06C50.64 37.71 51.07 37.52 51.39 37.52C51.66 37.52 51.8 37.65 51.8 37.89C51.8 38.12 51.74 38.51 51.59 39.15C51.22 40.81 51.18 41.08 51.18 41.66C51.18 42.27 51.34 42.64 51.7 42.92C51.92 43.08 52.23 43.18 52.56 43.18C53.11 43.18 53.6 42.95 54.04 42.46C54.3 42.18 54.44 41.99 54.74 41.47C54.41 41.01 54.29 40.8 54.07 40.27C53.95 40.63 53.73 41.06 53.49 41.41C53.28 41.72 53.01 41.92 52.79 41.92C52.53 41.92 52.38 41.74 52.38 41.42C52.38 41.1 52.46 40.68 52.8 39.17C52.98 38.4 53.05 37.97 53.05 37.64C53.05 36.84 52.49 36.31 51.65 36.31C51.04 36.31 50.41 36.59 49.54 37.25C48.82 37.79 48.61 37.97 48.32 38.29H48.31ZM55.93 37.52C56.02 37.51 56.07 37.51 56.12 37.51C56.2 37.51 56.34 37.51 56.52 37.52C56.69 37.53 56.79 37.53 56.84 37.53H57.42C57.44 37.53 57.48 37.53 57.55 37.52C57.22 39.3 56.45 41.63 55.76 42.9L57.02 43.39C57.68 41.62 57.85 41.12 58.14 40.08C58.4 39.17 58.65 38.11 58.76 37.49C59.09 37.48 59.89 37.38 60.4 37.28C60.64 37.24 60.64 37.24 60.72 37.23L60.67 36.08C60.17 36.23 59.7 36.31 58.96 36.38C59 36.15 59.01 36.09 59.06 35.81C59.18 35.08 59.18 35.08 59.25 34.85L57.93 34.73C57.94 34.81 57.94 34.87 57.94 34.91C57.94 35.19 57.84 35.96 57.75 36.44C57.52 36.45 57.41 36.45 57.29 36.45C56.71 36.45 56.31 36.42 55.95 36.36L55.93 37.52ZM63.86 37.74C63.23 37.73 63.14 37.73 62.87 37.73C61.79 37.73 61.31 37.78 59.89 38.05L59.98 39.15C60.97 38.93 61.63 38.86 62.62 38.86C63.12 38.86 63.4 38.88 63.88 38.93L63.86 37.74ZM59.92 39.84C59.37 40.59 59.18 41.04 59.18 41.57C59.18 42.07 59.46 42.55 59.89 42.8C60.37 43.07 61.01 43.2 61.9 43.2C62.49 43.2 62.93 43.16 63.76 43.04C63.99 43 64.07 42.99 64.25 42.97L64.16 41.74C63.58 41.95 62.62 42.11 61.89 42.11C60.89 42.11 60.39 41.85 60.39 41.34C60.39 40.99 60.51 40.74 60.91 40.24L59.92 39.84ZM67.98 34.99C68.03 35.14 68.04 35.16 68.14 35.64C68.39 36.87 68.56 37.54 68.81 38.35C68.16 38.68 67.84 38.88 67.45 39.21C66.88 39.69 66.56 40.33 66.56 41C66.56 41.72 66.88 42.34 67.43 42.67C68.07 43.05 68.94 43.22 70.33 43.22C71.03 43.22 71.59 43.18 72.67 43.07C73.21 43.01 73.26 43 73.48 43L73.37 41.63C72.62 41.89 71.39 42.04 70.14 42.04C68.53 42.04 67.85 41.73 67.85 41C67.85 40.28 68.58 39.64 70.04 39.1C71.16 38.69 72.47 38.31 73.34 38.14L72.91 36.88C72.76 36.95 72.71 36.97 72.53 37.03C70.59 37.67 70.59 37.67 69.94 37.91C69.62 36.89 69.32 35.45 69.28 34.78L67.98 34.99ZM76.39 37.24C76.6 37.23 76.65 37.22 77.07 37.22C78.23 37.21 78.95 37.17 79.75 37.08C79.83 37.26 79.86 37.32 79.96 37.53C80.04 37.72 80.08 37.78 80.14 37.9C79.19 38.03 78.36 38.09 77.31 38.09C76.63 38.09 76.57 38.09 76.28 38.05L76.32 39.14C76.49 39.12 76.56 39.12 76.73 39.11C78.9 39.04 79.54 39 80.6 38.84C81.02 39.53 81.21 39.81 81.37 39.96C80.83 39.82 80.25 39.75 79.64 39.75C78.63 39.75 77.83 39.92 77.31 40.25C76.77 40.6 76.47 41.1 76.47 41.64C76.47 42.2 76.76 42.71 77.24 43.01C77.8 43.35 78.53 43.5 79.68 43.5C80.56 43.5 81.39 43.39 82.24 43.16C82.7 43.04 82.7 43.04 82.89 43.01L82.71 41.78C82.08 42.13 80.67 42.43 79.63 42.43C79.05 42.43 78.52 42.35 78.2 42.21C77.94 42.1 77.77 41.87 77.77 41.63C77.77 41.39 77.92 41.18 78.2 41.02C78.54 40.84 79.12 40.74 79.88 40.74C80.86 40.74 81.46 40.85 82.18 41.15L83.06 40.52C82.4 39.76 82.24 39.55 81.72 38.69C81.84 38.66 81.84 38.66 82.09 38.61C82.33 38.56 82.66 38.49 83.07 38.39C83.3 38.33 83.51 38.29 83.7 38.26L83.6 37.17C83.34 37.28 83.22 37.32 82.65 37.46C82.59 37.47 82.13 37.57 81.27 37.75C81.1 37.43 81.04 37.3 80.88 36.93C81.19 36.89 82.3 36.67 82.97 36.51C83.21 36.46 83.21 36.46 83.31 36.44L83.21 35.38C82.52 35.61 81.36 35.87 80.51 35.98C80.24 35.32 80.14 35.02 80.1 34.77L78.85 34.94C78.86 34.96 79 35.27 79.25 35.85C79.33 36.03 79.33 36.03 79.36 36.11C78.6 36.19 78.06 36.22 77.3 36.22C76.86 36.22 76.63 36.21 76.34 36.18L76.39 37.24Z" fill="white"/>
</svg>
