<svg width="160" height="46" viewBox="0 0 160 46" fill="none" xmlns="http://www.w3.org/2000/svg">
<mask id="path-2-inside-1" fill="white">
<path fill-rule="evenodd" clip-rule="evenodd" d="M0 4C0 1.79086 1.79086 0 4 0H15L19 6H35L39 0H156C158.209 0 160 1.79086 160 4V36C160 38.2091 158.209 40 156 40H39L35 46H19L15 40H4C1.79086 40 0 38.2091 0 36V4Z"/>
</mask>
<path fill-rule="evenodd" clip-rule="evenodd" d="M0 4C0 1.79086 1.79086 0 4 0H15L19 6H35L39 0H156C158.209 0 160 1.79086 160 4V36C160 38.2091 158.209 40 156 40H39L35 46H19L15 40H4C1.79086 40 0 38.2091 0 36V4Z" fill="#2F80ED"/>
<path d="M15 0L15.8321 -0.5547L15.5352 -1H15V0ZM19 6L18.1679 6.5547L18.4648 7H19V6ZM35 6V7H35.5352L35.8321 6.5547L35 6ZM39 0V-1H38.4648L38.1679 -0.5547L39 0ZM39 40V39H38.4648L38.1679 39.4453L39 40ZM35 46V47H35.5352L35.8321 46.5547L35 46ZM19 46L18.1679 46.5547L18.4648 47H19V46ZM15 40L15.8321 39.4453L15.5352 39H15V40ZM4 -1C1.23858 -1 -1 1.23858 -1 4H1C1 2.34315 2.34315 1 4 1V-1ZM15 -1H4V1H15V-1ZM14.1679 0.5547L18.1679 6.5547L19.8321 5.4453L15.8321 -0.5547L14.1679 0.5547ZM19 7H35V5H19V7ZM35.8321 6.5547L39.8321 0.5547L38.1679 -0.5547L34.1679 5.4453L35.8321 6.5547ZM156 -1H39V1H156V-1ZM161 4C161 1.23858 158.761 -1 156 -1V1C157.657 1 159 2.34315 159 4H161ZM161 36V4H159V36H161ZM156 41C158.761 41 161 38.7614 161 36H159C159 37.6569 157.657 39 156 39V41ZM39 41H156V39H39V41ZM35.8321 46.5547L39.8321 40.5547L38.1679 39.4453L34.1679 45.4453L35.8321 46.5547ZM19 47H35V45H19V47ZM14.1679 40.5547L18.1679 46.5547L19.8321 45.4453L15.8321 39.4453L14.1679 40.5547ZM4 41H15V39H4V41ZM-1 36C-1 38.7614 1.23857 41 4 41V39C2.34314 39 1 37.6569 1 36H-1ZM-1 4V36H1V4H-1Z" fill="#006DFF" mask="url(#path-2-inside-1)"/>
<rect x="39.5" y="9.5" width="31" height="21" rx="10.5" fill="white" stroke="#006DFF"/>
<path d="M85.41 22.59C85.31 22.53 85.28 22.51 85.14 22.41C84.63 22.04 84.17 21.78 83.51 21.5C83.46 20.72 83.45 20.5 83.44 19.76C83.78 19.73 84.26 19.67 84.76 19.59C84.93 19.56 84.97 19.56 85.1 19.55L85.06 18.46C84.75 18.57 84.06 18.69 83.43 18.75C83.43 18.53 83.42 18.26 83.42 18.25C83.42 17.92 83.42 17.79 83.45 17.52C83.72 17.49 83.97 17.46 84.36 17.41C84.83 17.34 84.83 17.34 85 17.33L84.97 16.25C84.2 16.46 82.75 16.6 81.44 16.6C80.61 16.6 80.03 16.56 79.64 16.47L79.6 17.56C79.66 17.55 79.71 17.55 79.74 17.55C79.79 17.55 79.85 17.55 79.93 17.56C80.75 17.6 80.9 17.61 81.3 17.61C81.57 17.61 81.99 17.6 82.32 17.58C82.31 17.84 82.31 17.95 82.31 18.14C82.31 18.27 82.31 18.36 82.32 18.81C81.92 18.83 81.59 18.84 81.32 18.84C80.53 18.84 79.98 18.8 79.58 18.7L79.55 19.8C79.62 19.8 79.68 19.8 79.71 19.8C79.77 19.8 79.85 19.8 79.94 19.81C80.83 19.84 81.02 19.85 81.29 19.85C81.35 19.85 81.7 19.84 82.34 19.82C82.38 21.01 82.39 21.12 82.4 21.24C82.22 21.17 81.86 21.12 81.51 21.12C80.28 21.12 79.43 21.78 79.43 22.72C79.43 23.71 80.23 24.33 81.51 24.33C82.37 24.33 83.08 24.05 83.34 23.61C83.48 23.37 83.54 23.15 83.54 22.89C83.54 22.79 83.54 22.76 83.53 22.69C83.6 22.74 83.64 22.76 83.76 22.83C84.31 23.16 84.71 23.47 84.97 23.77L85.41 22.59ZM82.41 22.25C82.41 22.25 82.43 22.47 82.43 22.55C82.43 23.09 82.14 23.34 81.5 23.34C80.92 23.34 80.58 23.11 80.58 22.74C80.58 22.37 80.97 22.11 81.52 22.11C81.86 22.11 82.04 22.14 82.41 22.25ZM78.45 24.34C78.44 24.24 78.44 24.22 78.44 24.14C78.44 23.36 78.8 22.19 79.41 21.02L78.6 20.63C78.57 20.72 78.57 20.72 78.46 20.96C78.4 21.09 78.24 21.47 78.19 21.62C78.09 21.9 78.09 21.9 78.05 21.99H78.03C78.03 21.89 78.03 21.86 78.03 21.79C78.04 21.69 78.04 21.58 78.04 21.46C78.05 21.16 78.06 20.67 78.07 20.53C78.19 18.75 78.52 16.82 78.83 16.04L77.53 15.91C77.53 16.08 77.52 16.12 77.44 16.56C77.1 18.51 76.98 19.58 76.98 20.84C76.98 21.78 77.05 22.77 77.16 23.56C77.25 24.22 77.25 24.22 77.25 24.4L78.45 24.34ZM91.8401 17.01C93.3101 17.38 94.6901 17.56 96.5101 17.64L96.6801 16.41C96.5601 16.41 96.4501 16.41 96.4001 16.41C94.8201 16.41 93.3401 16.2 92.2301 15.83L91.8401 17.01ZM90.9601 20.35C91.7901 20.01 93.7901 19.66 94.9201 19.66C95.9601 19.66 96.4901 20.04 96.4901 20.79C96.4901 21.48 96.0601 22.11 95.2701 22.55C94.5001 22.98 93.4201 23.26 92.2601 23.31C92.5701 23.78 92.6801 24.03 92.7801 24.56C94.4101 24.3 95.1101 24.09 95.9301 23.62C97.1401 22.93 97.8301 21.89 97.8301 20.75C97.8301 19.96 97.4801 19.29 96.8601 18.92C96.4001 18.64 95.7801 18.51 94.9701 18.51C94.1201 18.51 93.2501 18.6 91.8301 18.85C90.9301 19.01 90.9301 19.01 90.6701 19.02L90.9601 20.35ZM101.32 17.66C101.39 17.66 101.44 17.67 101.46 17.67C101.5 17.67 101.57 17.68 101.69 17.69C102.18 17.76 103.01 17.81 103.52 17.81C104.15 17.81 104.58 17.79 105.02 17.73C104.89 17.81 104.88 17.81 104.8 17.85C104.67 17.93 104.64 17.95 104.54 18.01C104.29 18.15 104.18 18.22 103.55 18.62L104.42 19.31C105.26 18.69 106.49 17.92 107.09 17.66L107.05 16.53C106.39 16.67 105.68 16.72 104.41 16.72C103.07 16.72 102.18 16.65 101.41 16.47L101.32 17.66ZM102.06 19.92C101.16 20.67 100.77 21.33 100.77 22.1C100.77 22.88 101.19 23.43 102.05 23.77C102.58 23.99 103.46 24.1 104.55 24.1C105.41 24.1 106.05 24.05 107.25 23.87C107.48 23.84 107.51 23.84 107.69 23.83L107.58 22.46C106.94 22.71 105.63 22.89 104.44 22.89C102.75 22.89 102.02 22.61 102.02 21.96C102.02 21.53 102.3 21.11 102.93 20.58L102.06 19.92ZM108.93 19.51C108.62 18.94 108.34 18.56 107.89 18.1L107.22 18.45C107.61 18.88 107.94 19.35 108.24 19.9L108.93 19.51ZM105.99 19.04C106.43 19.52 106.71 19.92 107.04 20.53L107.74 20.16C107.4 19.54 107.13 19.16 106.69 18.69L105.99 19.04ZM112.36 15.79C112.36 15.87 112.36 15.94 112.36 15.98C112.36 16.31 112.28 16.92 112.1 18C111.55 18.08 110.34 18.2 109.97 18.2L110.09 19.38C110.42 19.29 111.37 19.12 111.88 19.06C111.48 20.49 111.34 20.91 110.91 21.89C110.57 22.65 110.17 23.37 109.87 23.77L111.03 24.41C111.08 24.31 111.08 24.3 111.11 24.24C111.21 24.04 111.21 24.04 111.26 23.94C111.84 22.77 112.11 22.13 112.46 21.13C112.68 20.48 112.77 20.18 113.07 18.96C113.3 18.94 113.45 18.93 113.65 18.93C114.44 18.93 114.67 19.2 114.67 20.12C114.67 20.97 114.57 21.88 114.41 22.4C114.26 22.89 114.1 23.08 113.81 23.08C113.46 23.08 112.89 22.93 112.35 22.69C112.43 23.08 112.45 23.28 112.45 23.54C112.45 23.64 112.44 23.78 112.43 23.98C113.1 24.19 113.51 24.27 113.97 24.27C114.5 24.27 114.8 24.15 115.08 23.82C115.56 23.27 115.85 21.9 115.85 20.18C115.85 19.27 115.72 18.79 115.38 18.41C115.05 18.06 114.56 17.88 113.9 17.88C113.71 17.88 113.57 17.89 113.28 17.91C113.31 17.78 113.31 17.76 113.35 17.54C113.49 16.79 113.49 16.79 113.52 16.58C113.55 16.42 113.56 16.37 113.58 16.24C113.6 16.13 113.63 16.02 113.66 15.93L112.36 15.79ZM115.94 17.71C116.41 18.22 116.73 18.68 117.09 19.42C117.47 20.17 117.7 20.83 117.89 21.69L119.03 21.11C118.6 19.57 117.97 18.38 116.97 17.21L115.94 17.71ZM125.78 18.68V18.03C126.57 18.01 126.75 18.01 126.99 18.01C127.82 18.01 128.3 18.03 128.67 18.06L128.66 16.91C128.29 16.95 127.51 16.97 125.77 16.98C125.78 16.12 125.78 16.1 125.82 15.79L124.56 15.8C124.61 16.06 124.61 16.06 124.62 17.01C124.1 17.03 124.1 17.03 123.77 17.04C122.95 17.06 122.85 17.06 122.2 17.08C120.91 17.13 120.75 17.13 120.5 17.13C120.32 17.13 120.23 17.13 120.01 17.11L120.05 18.3C120.32 18.26 120.32 18.26 121.83 18.15C122.27 18.12 123.21 18.09 124.64 18.05C124.64 18.32 124.64 18.88 124.65 18.9C124.65 18.97 124.65 18.97 124.66 19.02C124.43 18.83 124.05 18.72 123.62 18.72C122.46 18.72 121.63 19.48 121.63 20.54C121.63 21.11 121.85 21.55 122.32 21.89C122.66 22.14 123.02 22.25 123.48 22.25C124.14 22.25 124.66 22 124.95 21.54C124.87 22.1 124.47 22.61 123.79 23C123.32 23.28 122.91 23.42 122.09 23.58C122.42 23.94 122.52 24.09 122.8 24.71C123.73 24.39 124.19 24.18 124.61 23.89C125.58 23.22 126.1 22.28 126.1 21.19C126.1 20.65 126 20.24 125.78 19.78C125.78 19.66 125.77 19.58 125.77 19.54L125.78 18.68ZM124.63 20.33C124.63 20.85 124.22 21.23 123.65 21.23C123.15 21.23 122.8 20.9 122.8 20.44C122.8 20 123.22 19.64 123.73 19.64C124.28 19.64 124.63 19.91 124.63 20.33Z" fill="white"/>
<path d="M53.3634 24V17H52.2334C52.1934 17.2667 52.11 17.49 51.9834 17.67C51.8567 17.85 51.7 17.9967 51.5134 18.11C51.3334 18.2167 51.1267 18.2933 50.8934 18.34C50.6667 18.38 50.43 18.3967 50.1834 18.39V19.46H51.9434V24H53.3634ZM56.63 20.47C56.63 20.35 56.63 20.2067 56.63 20.04C56.6367 19.8667 56.65 19.69 56.67 19.51C56.69 19.33 56.7233 19.1533 56.77 18.98C56.8167 18.8 56.88 18.64 56.96 18.5C57.0467 18.36 57.1533 18.2467 57.28 18.16C57.4133 18.0733 57.5767 18.03 57.77 18.03C57.9633 18.03 58.1267 18.0733 58.26 18.16C58.3933 18.2467 58.5033 18.36 58.59 18.5C58.6767 18.64 58.74 18.8 58.78 18.98C58.8267 19.1533 58.86 19.33 58.88 19.51C58.9067 19.69 58.92 19.8667 58.92 20.04C58.9267 20.2067 58.93 20.35 58.93 20.47C58.93 20.67 58.9233 20.9133 58.91 21.2C58.8967 21.48 58.8533 21.7533 58.78 22.02C58.7133 22.28 58.6 22.5033 58.44 22.69C58.2867 22.8767 58.0633 22.97 57.77 22.97C57.4833 22.97 57.2633 22.8767 57.11 22.69C56.9567 22.5033 56.8433 22.28 56.77 22.02C56.7033 21.7533 56.6633 21.48 56.65 21.2C56.6367 20.9133 56.63 20.67 56.63 20.47ZM55.21 20.47C55.21 21.17 55.2767 21.7567 55.41 22.23C55.55 22.6967 55.7367 23.07 55.97 23.35C56.2033 23.63 56.4733 23.83 56.78 23.95C57.0933 24.07 57.4233 24.13 57.77 24.13C58.1233 24.13 58.4533 24.07 58.76 23.95C59.0733 23.83 59.3467 23.63 59.58 23.35C59.82 23.07 60.0067 22.6967 60.14 22.23C60.28 21.7567 60.35 21.17 60.35 20.47C60.35 19.79 60.28 19.22 60.14 18.76C60.0067 18.2933 59.82 17.92 59.58 17.64C59.3467 17.36 59.0733 17.16 58.76 17.04C58.4533 16.92 58.1233 16.86 57.77 16.86C57.4233 16.86 57.0933 16.92 56.78 17.04C56.4733 17.16 56.2033 17.36 55.97 17.64C55.7367 17.92 55.55 18.2933 55.41 18.76C55.2767 19.22 55.21 19.79 55.21 20.47Z" fill="black"/>
</svg>
