<svg width="154" height="151" viewBox="0 0 154 151" fill="none" xmlns="http://www.w3.org/2000/svg">
<mask id="path-1-inside-1" fill="white">
<path fill-rule="evenodd" clip-rule="evenodd" d="M4 0C1.79086 0 0 1.79086 0 4V36V124V125V141C0 143.209 1.79086 145 4 145H15L19 151H35L39 145H150C152.209 145 154 143.209 154 141V124C154 121.791 152.209 120 150 120H53L49 126H33L29 120H18C15.7909 120 14 118.209 14 116V44C14 41.7909 15.7909 40 18 40H29L33 46H49L53 40H150C152.209 40 154 38.2091 154 36V4C154 1.79086 152.209 0 150 0H39L35 6H19L15 0H4Z"/>
</mask>
<path fill-rule="evenodd" clip-rule="evenodd" d="M4 0C1.79086 0 0 1.79086 0 4V36V124V125V141C0 143.209 1.79086 145 4 145H15L19 151H35L39 145H150C152.209 145 154 143.209 154 141V124C154 121.791 152.209 120 150 120H53L49 126H33L29 120H18C15.7909 120 14 118.209 14 116V44C14 41.7909 15.7909 40 18 40H29L33 46H49L53 40H150C152.209 40 154 38.2091 154 36V4C154 1.79086 152.209 0 150 0H39L35 6H19L15 0H4Z" fill="#F2994A"/>
<path d="M15 145L15.8321 144.445L15.5352 144H15V145ZM19 151L18.1679 151.555L18.4648 152H19V151ZM35 151V152H35.5352L35.8321 151.555L35 151ZM39 145V144H38.4648L38.1679 144.445L39 145ZM53 120V119H52.4648L52.1679 119.445L53 120ZM49 126V127H49.5352L49.8321 126.555L49 126ZM33 126L32.1679 126.555L32.4648 127H33V126ZM29 120L29.8321 119.445L29.5352 119H29V120ZM29 40L29.8321 39.4453L29.5352 39H29V40ZM33 46L32.1679 46.5547L32.4648 47H33V46ZM49 46V47H49.5352L49.8321 46.5547L49 46ZM53 40V39H52.4648L52.1679 39.4453L53 40ZM39 0V-1H38.4648L38.1679 -0.5547L39 0ZM35 6V7H35.5352L35.8321 6.5547L35 6ZM19 6L18.1679 6.5547L18.4648 7H19V6ZM15 0L15.8321 -0.5547L15.5352 -1H15V0ZM1 4C1 2.34315 2.34315 1 4 1V-1C1.23858 -1 -1 1.23858 -1 4H1ZM1 36V4H-1V36H1ZM1 124V36H-1V124H1ZM1 125V124H-1V125H1ZM1 141V125H-1V141H1ZM4 144C2.34315 144 1 142.657 1 141H-1C-1 143.761 1.23858 146 4 146V144ZM15 144H4V146H15V144ZM14.1679 145.555L18.1679 151.555L19.8321 150.445L15.8321 144.445L14.1679 145.555ZM19 152H35V150H19V152ZM35.8321 151.555L39.8321 145.555L38.1679 144.445L34.1679 150.445L35.8321 151.555ZM150 144H39V146H150V144ZM153 141C153 142.657 151.657 144 150 144V146C152.761 146 155 143.761 155 141H153ZM153 124V141H155V124H153ZM150 121C151.657 121 153 122.343 153 124H155C155 121.239 152.761 119 150 119V121ZM53 121H150V119H53V121ZM49.8321 126.555L53.8321 120.555L52.1679 119.445L48.1679 125.445L49.8321 126.555ZM33 127H49V125H33V127ZM28.1679 120.555L32.1679 126.555L33.8321 125.445L29.8321 119.445L28.1679 120.555ZM18 121H29V119H18V121ZM13 116C13 118.761 15.2386 121 18 121V119C16.3431 119 15 117.657 15 116H13ZM13 44V116H15V44H13ZM18 39C15.2386 39 13 41.2386 13 44H15C15 42.3431 16.3431 41 18 41V39ZM29 39H18V41H29V39ZM33.8321 45.4453L29.8321 39.4453L28.1679 40.5547L32.1679 46.5547L33.8321 45.4453ZM49 45H33V47H49V45ZM52.1679 39.4453L48.1679 45.4453L49.8321 46.5547L53.8321 40.5547L52.1679 39.4453ZM150 39H53V41H150V39ZM153 36C153 37.6569 151.657 39 150 39V41C152.761 41 155 38.7614 155 36H153ZM153 4V36H155V4H153ZM150 1C151.657 1 153 2.34315 153 4H155C155 1.23858 152.761 -1 150 -1V1ZM39 1H150V-1H39V1ZM35.8321 6.5547L39.8321 0.5547L38.1679 -0.5547L34.1679 5.4453L35.8321 6.5547ZM19 7H35V5H19V7ZM14.1679 0.5547L18.1679 6.5547L19.8321 5.4453L15.8321 -0.5547L14.1679 0.5547ZM4 1H15V-1H4V1Z" fill="#FF7800" mask="url(#path-1-inside-1)"/>
<rect x="39.5" y="9.5" width="31" height="21" rx="10.5" fill="white" stroke="#FF7800"/>
<path d="M79.03 15.79C79.03 15.87 79.03 15.94 79.03 15.98C79.03 16.31 78.95 16.92 78.77 18C78.22 18.08 77.01 18.2 76.64 18.2L76.76 19.38C77.09 19.29 78.04 19.12 78.55 19.06C78.15 20.49 78.01 20.91 77.58 21.89C77.24 22.65 76.84 23.37 76.54 23.77L77.7 24.41C77.75 24.31 77.75 24.3 77.78 24.24C77.88 24.04 77.88 24.04 77.93 23.94C78.51 22.77 78.78 22.13 79.13 21.13C79.35 20.48 79.44 20.18 79.74 18.96C79.97 18.94 80.12 18.93 80.32 18.93C81.11 18.93 81.34 19.2 81.34 20.12C81.34 20.97 81.24 21.88 81.08 22.4C80.93 22.89 80.77 23.08 80.48 23.08C80.13 23.08 79.56 22.93 79.02 22.69C79.1 23.08 79.12 23.28 79.12 23.54C79.12 23.64 79.11 23.78 79.1 23.98C79.77 24.19 80.18 24.27 80.64 24.27C81.17 24.27 81.47 24.15 81.75 23.82C82.23 23.27 82.52 21.9 82.52 20.18C82.52 19.27 82.39 18.79 82.05 18.41C81.72 18.06 81.23 17.88 80.57 17.88C80.38 17.88 80.24 17.89 79.95 17.91C79.98 17.78 79.98 17.76 80.02 17.54C80.16 16.79 80.16 16.79 80.19 16.58C80.22 16.42 80.23 16.37 80.25 16.24C80.27 16.13 80.3 16.02 80.33 15.93L79.03 15.79ZM82.61 17.71C83.08 18.22 83.4 18.68 83.76 19.42C84.14 20.17 84.37 20.83 84.56 21.69L85.7 21.11C85.27 19.57 84.64 18.38 83.64 17.21L82.61 17.71ZM87.07 16.65C87.1 16.87 87.1 16.94 87.11 17.29C87.15 20.06 87.33 21.51 87.74 22.51C88.14 23.47 88.68 23.96 89.35 23.96C90.2 23.96 90.78 23.15 91.3 21.2C90.81 20.84 90.65 20.69 90.3 20.29C90.19 20.96 90.01 21.56 89.77 22.1C89.65 22.38 89.51 22.53 89.36 22.53C89.04 22.53 88.72 21.89 88.55 20.85C88.44 20.24 88.36 19.04 88.36 18.17C88.36 17.51 88.39 17.02 88.44 16.65H87.07ZM92.12 17.6C92.72 18.34 93.2 19.15 93.54 20.06C93.89 20.97 94.12 22.01 94.18 22.95L95.42 22.48C95.13 20.28 94.43 18.61 93.17 17.1L92.12 17.6ZM105.48 15.7C105.31 15.95 105.2 16.08 104.75 16.53C104.08 17.18 103.52 17.66 102.44 18.48C101.7 19.05 101.69 19.06 101.56 19.2C101.34 19.44 101.23 19.71 101.23 20.01C101.23 20.47 101.41 20.74 102.07 21.25C103.61 22.45 103.94 22.72 104.65 23.38C105.33 24.01 105.69 24.39 105.95 24.75L106.98 23.71C106.85 23.61 106.79 23.56 106.69 23.46C105.39 22.28 105.1 22.03 103.54 20.85C102.66 20.19 102.64 20.17 102.64 20.02C102.64 19.91 102.71 19.83 103.02 19.6C104.19 18.71 104.89 18.15 105.4 17.68C106.27 16.87 106.46 16.7 106.63 16.58L105.48 15.7ZM111.61 15.76C111.61 15.89 111.6 15.93 111.58 16.1L111.43 17.34C111.35 18.03 111.29 19.14 111.29 19.95C111.29 20.15 111.31 20.89 111.32 21.18C111.32 21.27 111.32 21.33 111.32 21.37C111.32 21.39 111.32 21.44 111.31 21.5L112.51 21.48C112.51 21.39 112.51 21.32 112.51 21.27C112.51 20.08 112.99 18.85 113.77 18.04C114.12 17.68 114.47 17.51 114.85 17.51C115.71 17.51 116.19 18.31 116.19 19.75C116.19 21.27 115.66 22.22 114.5 22.81C113.89 23.12 113.31 23.27 112.31 23.38C112.59 23.77 112.7 23.99 112.9 24.56C113.65 24.43 114.35 24.23 114.86 24C116.54 23.26 117.44 21.82 117.44 19.89C117.44 18.71 117.22 17.9 116.72 17.23C116.29 16.65 115.69 16.33 115.01 16.33C114.28 16.33 113.66 16.67 113.11 17.35C112.84 17.7 112.58 18.19 112.48 18.54C112.44 18.7 112.44 18.7 112.42 18.76H112.39C112.41 18.52 112.45 18.18 112.52 17.76C112.71 16.43 112.76 16.17 112.88 15.83L111.61 15.76ZM122.36 15.79C122.36 15.87 122.36 15.94 122.36 15.98C122.36 16.31 122.28 16.92 122.1 18C121.55 18.08 120.34 18.2 119.97 18.2L120.09 19.38C120.42 19.29 121.37 19.12 121.88 19.06C121.48 20.49 121.34 20.91 120.91 21.89C120.57 22.65 120.17 23.37 119.87 23.77L121.03 24.41C121.08 24.31 121.08 24.3 121.11 24.24C121.21 24.04 121.21 24.04 121.26 23.94C121.84 22.77 122.11 22.13 122.46 21.13C122.68 20.48 122.77 20.18 123.07 18.96C123.3 18.94 123.45 18.93 123.65 18.93C124.44 18.93 124.67 19.2 124.67 20.12C124.67 20.97 124.57 21.88 124.41 22.4C124.26 22.89 124.1 23.08 123.81 23.08C123.46 23.08 122.89 22.93 122.35 22.69C122.43 23.08 122.45 23.28 122.45 23.54C122.45 23.64 122.44 23.78 122.43 23.98C123.1 24.19 123.51 24.27 123.97 24.27C124.5 24.27 124.8 24.15 125.08 23.82C125.56 23.27 125.85 21.9 125.85 20.18C125.85 19.27 125.72 18.79 125.38 18.41C125.05 18.06 124.56 17.88 123.9 17.88C123.71 17.88 123.57 17.89 123.28 17.91C123.31 17.78 123.31 17.76 123.35 17.54C123.49 16.79 123.49 16.79 123.52 16.58C123.55 16.42 123.56 16.37 123.58 16.24C123.6 16.13 123.63 16.02 123.66 15.93L122.36 15.79ZM125.94 17.71C126.41 18.22 126.73 18.68 127.09 19.42C127.47 20.17 127.7 20.83 127.89 21.69L129.03 21.11C128.6 19.57 127.97 18.38 126.97 17.21L125.94 17.71ZM131.87 16.91C133.25 17.26 134.03 17.38 136.02 17.5L136.21 16.38C134.66 16.35 133.36 16.17 132.23 15.82L131.87 16.91ZM131.06 19.61C131.39 19.57 131.46 19.56 131.83 19.53C132.16 19.5 132.16 19.5 132.35 19.48C133.22 19.41 133.22 19.41 133.36 19.4C133.83 19.36 134.09 19.32 134.66 19.23C134.15 19.71 133.76 20.08 133.49 20.34C132.74 21.06 132.56 21.23 132.33 21.44C130.45 23.14 130.45 23.14 130.01 23.44L130.93 24.48C131.29 24.06 131.83 23.48 132.34 22.99C133.15 22.21 133.6 21.93 134.07 21.93C134.26 21.93 134.42 22.01 134.49 22.14C134.55 22.26 134.57 22.4 134.59 22.78C134.64 23.57 134.72 23.81 135 24.07C135.29 24.34 135.69 24.45 136.4 24.45C136.83 24.45 137.19 24.42 137.8 24.33C138.45 24.23 138.51 24.22 138.68 24.21L138.53 22.97C138.01 23.2 137.23 23.35 136.56 23.35C135.9 23.35 135.77 23.21 135.7 22.42C135.66 21.86 135.62 21.72 135.48 21.5C135.29 21.21 135.03 21.08 134.65 21.08C134.42 21.08 134.29 21.11 134.04 21.2C134.35 20.96 135.21 20.19 135.75 19.67C136.2 19.23 136.41 19.05 136.6 18.92L135.93 18.06C135.76 18.14 135.58 18.17 135.13 18.22C133.88 18.36 132.55 18.44 131.58 18.44C131.36 18.44 131.26 18.44 130.99 18.41L131.06 19.61ZM145.184 18.68V18.03C145.974 18.01 146.154 18.01 146.394 18.01C147.224 18.01 147.704 18.03 148.074 18.06L148.064 16.91C147.694 16.95 146.914 16.97 145.174 16.98C145.184 16.12 145.184 16.1 145.224 15.79L143.964 15.8C144.014 16.06 144.014 16.06 144.024 17.01C143.504 17.03 143.504 17.03 143.174 17.04C142.354 17.06 142.254 17.06 141.604 17.08C140.314 17.13 140.154 17.13 139.904 17.13C139.724 17.13 139.634 17.13 139.414 17.11L139.454 18.3C139.724 18.26 139.724 18.26 141.234 18.15C141.674 18.12 142.614 18.09 144.044 18.05C144.044 18.32 144.044 18.88 144.054 18.9C144.054 18.97 144.054 18.97 144.064 19.02C143.834 18.83 143.454 18.72 143.024 18.72C141.864 18.72 141.034 19.48 141.034 20.54C141.034 21.11 141.254 21.55 141.724 21.89C142.064 22.14 142.424 22.25 142.884 22.25C143.544 22.25 144.064 22 144.354 21.54C144.274 22.1 143.874 22.61 143.194 23C142.724 23.28 142.314 23.42 141.494 23.58C141.824 23.94 141.924 24.09 142.204 24.71C143.134 24.39 143.594 24.18 144.014 23.89C144.984 23.22 145.504 22.28 145.504 21.19C145.504 20.65 145.404 20.24 145.184 19.78C145.184 19.66 145.174 19.58 145.174 19.54L145.184 18.68ZM144.034 20.33C144.034 20.85 143.624 21.23 143.054 21.23C142.554 21.23 142.204 20.9 142.204 20.44C142.204 20 142.624 19.64 143.134 19.64C143.684 19.64 144.034 19.91 144.034 20.33Z" fill="white"/>
<path d="M53.3634 24V17H52.2334C52.1934 17.2667 52.11 17.49 51.9834 17.67C51.8567 17.85 51.7 17.9967 51.5134 18.11C51.3334 18.2167 51.1267 18.2933 50.8934 18.34C50.6667 18.38 50.43 18.3967 50.1834 18.39V19.46H51.9434V24H53.3634ZM56.63 20.47C56.63 20.35 56.63 20.2067 56.63 20.04C56.6367 19.8667 56.65 19.69 56.67 19.51C56.69 19.33 56.7233 19.1533 56.77 18.98C56.8167 18.8 56.88 18.64 56.96 18.5C57.0467 18.36 57.1533 18.2467 57.28 18.16C57.4133 18.0733 57.5767 18.03 57.77 18.03C57.9633 18.03 58.1267 18.0733 58.26 18.16C58.3933 18.2467 58.5033 18.36 58.59 18.5C58.6767 18.64 58.74 18.8 58.78 18.98C58.8267 19.1533 58.86 19.33 58.88 19.51C58.9067 19.69 58.92 19.8667 58.92 20.04C58.9267 20.2067 58.93 20.35 58.93 20.47C58.93 20.67 58.9233 20.9133 58.91 21.2C58.8967 21.48 58.8533 21.7533 58.78 22.02C58.7133 22.28 58.6 22.5033 58.44 22.69C58.2867 22.8767 58.0633 22.97 57.77 22.97C57.4833 22.97 57.2633 22.8767 57.11 22.69C56.9567 22.5033 56.8433 22.28 56.77 22.02C56.7033 21.7533 56.6633 21.48 56.65 21.2C56.6367 20.9133 56.63 20.67 56.63 20.47ZM55.21 20.47C55.21 21.17 55.2767 21.7567 55.41 22.23C55.55 22.6967 55.7367 23.07 55.97 23.35C56.2033 23.63 56.4733 23.83 56.78 23.95C57.0933 24.07 57.4233 24.13 57.77 24.13C58.1233 24.13 58.4533 24.07 58.76 23.95C59.0733 23.83 59.3467 23.63 59.58 23.35C59.82 23.07 60.0067 22.6967 60.14 22.23C60.28 21.7567 60.35 21.17 60.35 20.47C60.35 19.79 60.28 19.22 60.14 18.76C60.0067 18.2933 59.82 17.92 59.58 17.64C59.3467 17.36 59.0733 17.16 58.76 17.04C58.4533 16.92 58.1233 16.86 57.77 16.86C57.4233 16.86 57.0933 16.92 56.78 17.04C56.4733 17.16 56.2033 17.36 55.97 17.64C55.7367 17.92 55.55 18.2933 55.41 18.76C55.2767 19.22 55.21 19.79 55.21 20.47Z" fill="black"/>
</svg>
